<?xml version="1.0" standalone="no"?>
<!DOCTYPE svg PUBLIC "-//W3C//DTD SVG 20010904//EN"
 "http://www.w3.org/TR/2001/REC-SVG-20010904/DTD/svg10.dtd">
<svg version="1.0" xmlns="http://www.w3.org/2000/svg"
 width="2000.000000pt" height="2000.000000pt" viewBox="0 0 2000.000000 2000.000000"
 preserveAspectRatio="xMidYMid meet">
<metadata>
Created by potrace 1.14, written by Peter Selinger 2001-2017
</metadata>
<g transform="translate(0.000000,2000.000000) scale(0.100000,-0.100000)"
fill="#000000" stroke="none">
<path d="M8139 18380 c-82 -25 -153 -67 -201 -119 -76 -83 -82 -99 -82 -241 0
-97 2 -111 34 -184 27 -64 47 -94 101 -148 38 -37 75 -68 84 -68 8 0 15 -4 15
-8 0 -4 21 -19 48 -32 35 -18 42 -25 28 -28 -10 -2 -43 -12 -72 -22 l-53 -19
-95 92 c-84 83 -125 120 -214 195 -32 27 -37 31 -82 62 -19 13 -37 27 -40 30
-3 4 -21 15 -40 26 -19 10 -37 22 -40 25 -9 10 -110 58 -110 52 0 -3 -6 -1
-12 5 -15 11 -102 27 -133 23 -77 -9 -325 -110 -325 -133 0 -4 -5 -8 -11 -8
-31 0 -259 -199 -334 -290 -30 -38 -99 -123 -108 -135 -55 -73 -77 -106 -77
-114 0 -6 -4 -11 -8 -11 -5 0 -17 -18 -28 -40 -10 -22 -21 -40 -24 -40 -3 0
-17 -21 -30 -47 -14 -27 -29 -51 -35 -55 -7 -5 -7 -8 0 -8 6 0 6 -3 -1 -8 -13
-9 -150 -286 -159 -322 0 -3 -6 -14 -12 -25 -6 -11 -12 -24 -13 -30 -1 -5 -7
-21 -12 -35 -6 -14 -11 -29 -12 -35 -1 -5 -8 -20 -14 -32 -7 -13 -10 -23 -6
-23 3 0 1 -7 -6 -15 -7 -8 -9 -15 -5 -15 4 0 2 -7 -5 -15 -7 -8 -9 -15 -5 -15
4 0 2 -6 -4 -13 -6 -8 -13 -24 -15 -38 -3 -13 -5 -25 -7 -26 -1 -2 -2 -6 -3
-10 -1 -5 -7 -24 -14 -43 -6 -19 -14 -46 -16 -60 -3 -14 -5 -25 -6 -25 -1 0
-3 -7 -5 -15 -2 -8 -6 -25 -9 -37 -3 -13 -8 -32 -11 -44 -2 -11 -6 -28 -9 -37
-3 -9 -8 -30 -11 -47 -2 -16 -7 -41 -10 -55 -12 -60 -22 -123 -40 -256 -3 -22
-8 -85 -10 -139 -10 -200 -20 -244 -90 -369 -14 -26 -23 -46 -21 -46 3 0 -5
-19 -18 -42 -13 -24 -25 -46 -25 -50 -2 -8 -25 -66 -40 -103 -14 -32 -36 -89
-37 -97 -1 -5 -2 -9 -4 -10 -2 -3 -2 -4 -30 -108 -11 -41 -23 -86 -25 -100 -3
-14 -7 -34 -9 -45 -3 -19 -13 -79 -21 -135 -2 -14 -7 -50 -11 -80 -3 -30 -7
-64 -9 -75 -21 -161 -26 -389 -11 -545 4 -47 9 -87 11 -90 1 -3 6 -32 9 -65 4
-33 9 -67 11 -75 2 -8 6 -37 10 -65 10 -79 54 -301 81 -406 14 -53 27 -105 29
-115 2 -11 11 -44 20 -74 9 -30 18 -62 20 -70 2 -8 4 -16 5 -17 2 -2 3 -6 4
-10 23 -89 87 -276 141 -413 75 -191 265 -561 298 -582 6 -4 -2 -9 -19 -13
-191 -40 -405 -118 -538 -197 -104 -62 -211 -164 -237 -226 -34 -78 -21 -127
35 -137 38 -8 73 7 151 64 27 20 57 41 67 46 59 34 166 101 181 113 9 8 17 12
17 8 0 -3 17 4 38 17 60 37 210 103 311 136 52 17 95 30 96 29 6 -11 132 -175
140 -184 6 -6 29 -34 53 -62 23 -28 58 -66 77 -85 41 -41 46 -36 -95 -105 -58
-29 -127 -66 -155 -82 -27 -17 -58 -33 -67 -36 -10 -4 -18 -10 -18 -15 0 -5
-7 -9 -15 -9 -8 0 -15 -4 -15 -9 0 -5 -13 -14 -30 -21 -16 -7 -30 -15 -30 -19
0 -4 -12 -14 -27 -23 -16 -9 -38 -25 -50 -35 -12 -10 -37 -29 -55 -43 -18 -14
-71 -63 -119 -110 -154 -153 -228 -289 -199 -366 13 -34 67 -65 95 -54 13 5
25 6 28 3 6 -5 27 16 233 228 66 68 149 149 183 179 35 30 74 64 87 75 32 29
54 46 99 79 22 17 42 32 45 35 3 4 17 12 33 20 15 8 27 18 27 23 0 4 7 8 15 8
8 0 15 5 15 10 0 6 5 10 12 10 6 0 25 11 42 24 17 13 41 26 54 30 12 4 22 11
22 16 0 18 50 20 68 3 10 -10 40 -37 67 -60 28 -23 60 -50 72 -60 41 -35 58
-48 119 -93 70 -51 70 -52 182 -125 46 -30 87 -55 92 -55 4 0 13 -7 20 -15 7
-8 16 -12 21 -9 5 3 9 1 9 -4 0 -5 17 -16 38 -25 20 -9 74 -36 120 -61 45 -24
82 -42 82 -40 0 2 21 -8 48 -23 26 -15 47 -25 47 -24 0 1 18 -6 40 -15 22 -9
46 -17 53 -17 6 0 12 -5 12 -10 0 -6 3 -8 6 -5 3 4 30 -5 60 -18 30 -13 54
-21 54 -18 0 4 7 1 15 -6 8 -7 15 -10 15 -6 0 4 13 0 30 -9 16 -9 30 -13 30
-9 0 4 6 2 13 -4 6 -6 15 -11 20 -11 4 -1 8 -1 10 -2 1 0 11 -3 22 -5 25 -6
36 -9 55 -17 12 -5 157 -42 204 -52 6 -1 22 -5 36 -8 14 -4 41 -9 60 -12 19
-2 46 -7 60 -10 13 -2 42 -7 65 -10 22 -4 51 -8 65 -10 24 -4 94 -12 175 -20
182 -19 557 -24 810 -11 156 8 172 9 293 20 79 7 95 -4 32 -23 -54 -16 -153
-114 -215 -214 -33 -52 -113 -111 -228 -169 -37 -19 -64 -37 -61 -41 4 -4 2
-7 -4 -7 -6 0 -14 5 -17 10 -9 14 -47 12 -69 -5 -10 -7 -15 -18 -11 -24 3 -6
0 -9 -7 -6 -7 3 -26 -6 -43 -20 -16 -13 -35 -28 -40 -32 -127 -97 -252 -192
-271 -204 -13 -9 -38 -28 -54 -42 -16 -15 -32 -27 -35 -27 -3 0 -11 -5 -18
-10 -68 -57 -269 -192 -447 -300 -30 -19 -147 -90 -260 -158 -113 -69 -223
-136 -245 -149 -22 -13 -66 -41 -97 -61 -32 -20 -86 -55 -120 -77 -35 -21
-137 -91 -227 -155 -89 -63 -175 -123 -188 -132 -14 -9 -29 -20 -32 -25 -3 -5
-22 -20 -41 -33 -19 -13 -37 -27 -40 -30 -3 -3 -39 -32 -80 -65 -41 -32 -80
-64 -86 -70 -7 -5 -47 -41 -90 -80 -96 -86 -147 -137 -199 -197 -64 -74 -75
-88 -75 -97 0 -5 -4 -11 -8 -13 -17 -6 -84 -122 -112 -193 -44 -112 -64 -223
-65 -365 0 -172 21 -316 65 -444 23 -68 79 -176 91 -176 5 0 9 -5 9 -11 0 -9
103 -149 135 -185 6 -6 21 -26 35 -44 23 -31 77 -97 90 -110 3 -3 23 -27 45
-55 22 -27 48 -59 58 -70 39 -42 47 -63 52 -145 3 -46 8 -93 11 -104 12 -38
118 -191 189 -272 11 -12 29 -35 40 -50 11 -15 29 -38 40 -50 62 -69 64 -57
-18 -137 -103 -100 -120 -139 -120 -267 -1 -99 25 -160 80 -189 24 -12 81 -7
97 10 19 18 34 8 74 -51 22 -33 57 -81 78 -107 49 -59 190 -201 228 -228 15
-11 42 -32 59 -47 18 -15 43 -33 57 -40 14 -7 27 -15 30 -18 13 -15 129 -80
150 -84 3 -1 25 -11 50 -23 45 -21 111 -48 120 -48 3 0 10 -3 15 -6 6 -4 26
-10 45 -15 19 -4 41 -9 48 -11 6 -2 20 -5 30 -6 20 -4 19 -12 -9 -49 -12 -15
-27 -24 -35 -21 -8 3 -15 -1 -15 -8 -1 -8 -2 -27 -4 -44 -3 -33 -12 -95 -20
-139 -7 -36 -23 -66 -35 -66 -10 0 -28 -51 -32 -95 -2 -16 -9 -40 -16 -53 -7
-12 -10 -22 -6 -22 3 0 1 -7 -7 -16 -11 -14 -13 -14 -21 0 -14 25 -35 19 -69
-19 -25 -27 -44 -37 -91 -46 -39 -8 -69 -21 -88 -39 -37 -34 -80 -63 -87 -57
-9 9 -77 -15 -108 -39 -17 -13 -38 -35 -45 -49 -16 -30 -75 -69 -109 -72 -43
-4 -115 -56 -127 -92 -11 -35 -68 -90 -92 -91 -17 0 -102 -58 -102 -69 0 -5
-21 -12 -47 -16 -27 -4 -73 -13 -103 -21 -30 -8 -68 -17 -85 -20 -16 -2 -38
-7 -47 -10 -15 -4 -28 -7 -83 -19 -30 -7 -338 -97 -365 -108 -8 -3 -33 -11
-55 -17 -160 -48 -565 -236 -565 -262 0 -5 -5 -8 -11 -8 -12 0 -92 -59 -97
-72 -2 -5 -10 -8 -18 -8 -9 0 -13 -4 -10 -8 2 -4 -9 -17 -25 -27 -16 -11 -29
-23 -29 -26 0 -3 -11 -19 -25 -35 -50 -58 -80 -133 -82 -210 -1 -70 20 -164
38 -164 5 0 9 -6 9 -13 0 -7 9 -23 20 -35 12 -12 19 -22 16 -22 -2 0 18 -22
46 -50 28 -27 52 -50 55 -50 2 0 11 -7 20 -15 23 -24 131 -95 142 -95 6 0 11
-4 11 -9 0 -5 8 -11 18 -14 9 -3 28 -12 42 -20 48 -28 125 -65 190 -91 36 -15
74 -31 85 -37 12 -6 27 -11 35 -13 8 -1 26 -8 40 -16 14 -7 25 -12 25 -11 0 1
7 0 15 -3 48 -17 207 -68 220 -71 8 -2 15 -4 15 -5 0 -1 7 -3 15 -5 8 -2 40
-11 70 -19 80 -21 331 -84 360 -90 14 -3 70 -15 125 -26 86 -18 105 -25 132
-53 41 -42 60 -57 73 -57 5 0 10 -4 10 -8 0 -11 88 -42 136 -47 115 -13 317
-2 432 23 21 5 46 7 57 6 11 -2 47 -6 80 -9 33 -3 76 -7 95 -10 44 -6 118 -13
195 -20 112 -10 126 -14 158 -48 18 -18 50 -46 72 -63 22 -16 63 -52 92 -80
47 -47 115 -91 153 -99 8 -2 30 -8 47 -14 39 -11 154 -7 215 9 58 15 172 54
178 61 3 3 23 13 44 23 21 10 80 46 130 80 l91 61 290 1 c255 1 684 11 830 19
196 11 297 17 340 20 28 3 86 7 130 10 44 4 94 8 110 9 17 2 64 7 105 10 41 4
91 9 110 11 19 2 64 7 100 11 36 3 74 8 85 10 11 2 45 6 75 9 30 3 66 7 80 10
22 3 68 9 150 19 47 6 115 17 142 22 15 3 39 7 55 9 15 2 44 6 63 10 59 10
144 25 170 30 14 3 48 9 75 15 28 5 59 11 70 13 11 3 38 8 60 12 22 4 49 9 61
11 39 7 350 85 419 105 99 29 314 99 350 114 17 7 57 23 90 35 33 13 69 28 80
34 11 6 22 11 25 11 13 2 185 90 188 97 2 4 8 8 13 8 11 0 86 48 113 73 11 9
23 17 28 17 4 0 39 30 76 68 68 68 122 140 122 165 0 7 6 19 12 25 8 8 13 42
13 90 0 67 -4 86 -32 143 -18 36 -58 92 -90 126 -52 53 -173 149 -213 167 -8
3 -28 15 -45 26 -94 60 -336 162 -545 229 -210 67 -259 81 -274 81 -9 0 -18
12 -22 28 -19 83 -27 112 -46 162 -46 118 -148 240 -249 296 -19 10 -37 24
-41 29 -4 6 -8 7 -8 2 0 -4 -16 2 -36 12 -19 11 -55 25 -80 32 -30 9 -44 19
-44 31 0 34 -67 88 -110 88 -24 0 -50 22 -50 42 0 7 -8 20 -18 28 -21 19 -75
54 -82 55 -3 0 -10 4 -17 8 -6 4 -13 2 -15 -5 -7 -19 -38 -1 -38 22 0 11 -7
20 -15 20 -8 0 -15 4 -15 10 0 5 -3 9 -7 8 -5 -1 -21 4 -36 10 -35 15 -54 15
-62 2 -9 -14 -25 -2 -25 19 0 17 -54 43 -96 46 -12 1 -34 12 -49 23 -15 12
-36 22 -47 22 -10 0 -21 6 -24 14 -7 18 13 56 29 56 7 0 28 5 48 10 l35 10 -2
417 c-2 230 -5 488 -8 573 -2 85 -8 248 -11 361 l-7 206 57 33 c31 18 76 49
101 71 36 31 42 40 31 51 -31 30 -78 248 -92 423 -3 33 -7 80 -10 105 -2 25
-7 77 -10 115 -3 39 -7 93 -10 120 -2 28 -7 85 -10 128 -4 43 -8 86 -10 95 -1
9 -6 62 -10 117 -3 54 -8 102 -10 105 -1 3 -6 40 -10 83 -3 43 -8 88 -10 100
-8 50 -17 122 -21 160 -7 71 -35 251 -44 285 -4 17 -7 32 -4 32 2 0 115 -111
252 -248 253 -252 306 -302 316 -302 3 0 20 -14 38 -30 17 -17 37 -30 44 -30
7 0 14 -4 16 -9 3 -9 151 -101 163 -101 4 0 18 -9 32 -20 14 -11 29 -17 34
-14 5 3 9 0 9 -6 0 -6 5 -8 10 -5 6 3 10 1 10 -4 0 -6 3 -10 8 -9 6 2 35 -10
137 -57 28 -13 61 -26 78 -30 4 -2 8 -3 10 -5 1 -1 9 -3 17 -6 8 -2 53 -17
100 -33 104 -37 221 -69 310 -86 14 -3 36 -7 50 -10 34 -7 82 -14 160 -22 68
-8 369 -9 430 -2 19 2 59 -5 89 -15 69 -24 153 -17 241 19 36 15 79 33 95 39
17 7 77 36 135 66 58 30 107 55 110 55 3 1 49 23 102 48 190 90 267 155 330
278 16 32 30 63 32 71 1 7 4 18 8 23 3 6 9 29 12 51 4 22 9 51 12 64 10 46 11
230 1 230 -5 0 -5 6 2 13 6 8 9 16 7 18 -2 2 -7 45 -10 94 -7 90 -10 119 -22
205 -9 66 -11 81 -18 120 -4 19 -9 49 -12 65 -3 17 -7 38 -10 48 -3 11 -8 29
-10 40 -2 12 -6 34 -10 50 -5 20 0 37 18 65 13 20 27 45 31 54 5 13 32 18 45
8 1 -2 5 -3 10 -4 4 -1 13 -5 20 -9 6 -5 12 -6 12 -3 0 3 18 -1 40 -9 22 -8
41 -14 43 -13 2 1 28 -4 94 -16 102 -20 371 -27 483 -12 111 14 217 39 315 73
55 20 105 39 110 43 6 4 37 22 70 40 33 18 77 46 98 63 21 16 39 28 41 26 5
-6 13 -61 31 -239 4 -30 8 -75 10 -100 3 -25 7 -67 10 -95 2 -27 7 -77 10
-110 3 -33 8 -80 11 -105 3 -25 7 -65 9 -90 8 -83 16 -148 19 -166 2 -11 7
-46 10 -79 19 -172 79 -502 118 -645 11 -41 22 -79 23 -85 31 -116 87 -177
115 -125 17 32 20 54 21 180 2 83 6 120 16 132 12 13 12 23 2 56 -11 38 -10
42 15 67 32 32 32 36 2 68 l-24 25 39 38 c22 21 39 44 39 50 0 7 -16 26 -36
42 l-36 30 31 28 c16 16 41 38 55 49 14 11 25 23 26 27 0 4 -25 33 -55 65
l-56 57 38 19 c61 32 69 49 39 84 -45 51 -69 91 -61 103 3 6 24 19 45 30 59
30 60 51 3 111 -26 28 -49 54 -51 57 -1 4 15 16 35 27 44 23 73 46 73 58 0 12
-62 67 -76 67 -6 0 -18 7 -25 16 -14 17 -9 23 83 97 34 27 36 50 4 65 -14 6
-44 23 -67 37 l-42 27 42 25 c59 35 59 60 -2 115 l-42 38 30 25 c17 13 33 24
36 25 13 0 39 49 33 63 -3 8 -27 24 -55 37 -27 13 -49 27 -49 31 0 4 14 13 30
21 17 7 30 16 30 20 0 5 4 8 10 8 18 0 60 43 60 61 0 20 -42 58 -105 94 -24
14 -42 32 -41 39 1 8 25 35 54 61 64 58 73 82 41 106 -23 17 -23 19 -10 66 28
104 43 183 45 237 l1 28 30 -38 c51 -64 162 -172 194 -189 17 -8 31 -24 31
-34 0 -10 3 -21 8 -25 4 -4 7 -11 7 -14 2 -30 57 -91 83 -92 17 0 15 18 -8 65
-27 56 -26 75 5 75 14 0 25 4 25 10 0 5 16 1 36 -11 20 -11 56 -20 80 -21 46
-1 107 19 99 32 -3 4 -37 16 -76 25 -68 17 -71 19 -65 44 4 14 9 43 13 63 3
21 11 38 17 38 34 0 96 87 96 133 0 35 -26 42 -34 10 -9 -32 -50 -73 -73 -73
-12 1 -27 19 -42 53 -26 55 -140 177 -166 177 -8 0 -15 3 -15 8 0 13 -96 52
-172 68 -40 9 -74 18 -76 19 -1 1 -5 18 -8 36 -3 19 -7 43 -8 54 -16 99 -126
344 -188 419 -53 65 -153 156 -171 156 -14 0 -34 24 -42 50 -11 35 -92 195
-123 244 -77 120 -256 316 -289 316 -7 0 -13 4 -13 8 0 5 -38 28 -84 52 -64
32 -86 49 -91 67 -6 24 -7 24 -30 9 -20 -13 -29 -14 -62 -2 -33 11 -39 18 -45
55 -4 23 -10 46 -13 51 -8 13 -53 -5 -97 -41 -50 -40 -92 -39 -110 1 -7 17
-16 30 -20 30 -5 0 -8 6 -8 13 0 17 -48 61 -71 64 -16 2 -26 -11 -49 -59 -17
-35 -30 -68 -30 -74 0 -7 -21 -15 -46 -19 -48 -7 -71 3 -124 52 -14 13 -40 30
-59 39 -53 26 -66 11 -66 -74 l0 -71 -71 -26 c-39 -14 -86 -25 -105 -24 -61 3
-69 0 -69 -26 0 -20 -11 -31 -55 -56 -59 -33 -175 -143 -175 -165 0 -8 -4 -14
-10 -14 -5 0 -10 -7 -10 -15 0 -8 -4 -15 -10 -15 -5 0 -10 -6 -10 -14 0 -8 -3
-16 -8 -18 -4 -2 -25 -30 -47 -63 -21 -33 -42 -61 -47 -63 -4 -2 -8 -8 -8 -13
0 -6 -5 -15 -10 -22 -40 -47 -52 -64 -71 -104 -27 -55 -34 -50 -17 13 7 27 12
55 11 62 0 6 -1 21 -2 33 -1 18 -6 20 -33 16 -18 -3 -43 -8 -55 -12 -30 -10
-38 21 -18 69 24 56 27 110 6 117 -9 4 -26 3 -38 -2 -27 -10 -34 6 -17 41 15
30 27 101 25 153 -2 87 -72 175 -149 188 -4 0 -14 5 -23 10 -27 14 -70 20
-167 24 -122 4 -200 -14 -314 -73 -5 -2 -8 1 -8 8 0 17 -109 118 -158 145
-107 60 -190 68 -327 32 -51 -14 -174 -124 -158 -141 4 -3 1 -6 -5 -6 -7 0
-12 -9 -12 -19 0 -11 -16 -37 -35 -58 -19 -21 -41 -50 -48 -65 -6 -16 -15 -28
-18 -28 -4 0 -10 -17 -14 -37 -5 -21 -10 -47 -13 -58 -7 -29 -7 -66 1 -102 l6
-31 -67 -11 c-37 -6 -87 -14 -112 -16 -25 -3 -52 -7 -60 -10 -8 -2 -40 -7 -70
-10 -30 -3 -66 -8 -80 -10 -14 -2 -45 -7 -70 -10 -25 -4 -56 -8 -70 -10 -14
-2 -50 -7 -80 -10 -30 -4 -62 -9 -70 -10 -8 -1 -40 -6 -70 -9 -110 -14 -135
-18 -139 -22 -2 -2 -21 11 -41 29 -20 17 -45 37 -55 42 -15 9 -9 16 46 50 153
93 366 243 466 328 107 91 238 218 306 298 20 24 50 60 67 79 16 19 30 38 30
41 0 3 11 19 25 35 14 16 25 35 25 42 0 6 4 12 8 12 4 0 15 15 24 33 8 17 31
64 51 102 31 62 72 180 66 187 -1 2 3 13 9 25 11 20 18 21 99 17 114 -5 255
-23 357 -44 155 -32 242 -54 330 -86 83 -29 116 -30 144 -5 27 22 30 85 6 119
-23 33 -154 88 -255 107 -13 3 -37 8 -54 11 -16 4 -41 8 -55 10 -14 2 -52 7
-85 11 -33 4 -153 8 -268 8 l-207 0 -1 35 c-2 68 -34 204 -60 252 -9 16 -3 22
44 43 47 21 89 34 162 52 43 11 202 41 245 48 25 3 119 8 210 12 184 6 214 15
225 62 10 45 -14 82 -69 111 -33 17 -162 17 -258 0 -32 -6 -71 -13 -86 -15
-71 -9 -335 -88 -359 -108 -7 -5 -13 -7 -13 -4 0 3 -38 -11 -84 -32 l-83 -39
-29 46 c-16 25 -33 51 -39 57 -12 13 -22 30 -65 103 -26 44 -31 63 -31 120 0
37 2 77 5 88 2 12 7 37 10 55 3 19 8 45 10 59 3 14 10 52 15 85 6 33 13 71 16
85 3 13 7 42 10 65 3 22 10 65 15 95 5 30 11 73 14 95 3 22 8 62 12 90 3 27 8
61 10 75 1 14 6 57 9 95 4 39 8 81 11 95 18 109 27 733 12 865 -11 105 -39
253 -63 338 -30 107 -78 241 -87 245 -5 2 -8 11 -8 19 0 16 -19 54 -78 158
-73 127 -149 232 -258 354 l-31 34 31 33 c43 44 56 61 56 74 0 5 4 10 10 10 5
0 12 11 16 25 3 14 10 25 15 25 5 0 8 3 7 8 -1 4 4 21 11 37 35 84 42 192 16
280 -16 57 -74 144 -143 217 -76 80 -84 108 -49 162 21 31 40 32 107 6 53 -21
67 -13 24 14 -14 10 -48 18 -79 19 -44 1 -58 -2 -79 -22 -14 -13 -29 -40 -32
-59 l-7 -35 -22 44 c-13 24 -26 73 -30 109 -9 82 -22 132 -51 195 -26 58 -47
85 -125 163 -56 56 -64 74 -74 150 -14 111 -99 374 -131 406 -8 8 -14 19 -14
24 0 21 -91 100 -146 127 -52 26 -71 30 -164 32 -182 4 -409 -62 -659 -194
-98 -51 -106 -53 -135 -41 -17 7 -34 12 -38 10 -5 -1 -8 3 -8 10 0 6 -3 9 -6
5 -4 -3 -27 6 -53 20 -25 14 -69 38 -97 53 -27 15 -71 39 -97 54 -26 15 -52
29 -59 30 -7 1 -24 8 -38 16 -14 7 -26 13 -27 12 -2 -1 -4 -2 -5 -1 -2 0 -11
2 -20 5 -29 7 -42 11 -58 17 -8 3 -31 8 -50 11 -19 3 -46 8 -60 11 -73 15
-329 22 -397 11 -15 -3 -53 -7 -83 -11 -175 -20 -380 -72 -712 -181 -145 -47
-270 -87 -278 -89 -8 -2 -37 -9 -65 -15 -46 -11 -69 -14 -175 -24 -88 -9 -171
47 -220 148 -37 77 -49 129 -45 205 5 87 44 141 119 162 31 8 53 7 105 -6 78
-19 85 -19 89 -7 2 6 -12 14 -30 18 -18 4 -40 9 -48 11 -47 12 -133 8 -181 -7z
m3305 -7627 c8 -7 22 -13 31 -13 8 0 15 -4 15 -9 0 -5 13 -12 29 -16 l29 -6
-5 -92 c-8 -151 23 -213 58 -114 9 26 15 47 13 47 -3 0 4 17 15 39 11 21 17
41 14 45 -4 3 -1 6 5 6 7 0 12 6 12 14 0 15 4 15 65 -2 22 -6 51 -13 65 -16
14 -3 45 -10 70 -15 25 -6 48 -10 51 -11 3 0 6 -19 6 -42 0 -61 22 -154 38
-168 12 -10 17 -7 25 15 6 15 12 45 15 68 10 80 20 102 46 103 13 0 38 -3 54
-7 17 -4 54 -11 84 -14 30 -4 63 -8 74 -11 11 -2 43 -6 71 -9 81 -9 87 -12 76
-41 -12 -32 -12 -65 0 -84 7 -12 12 -12 29 4 11 10 23 28 27 40 8 24 39 67 45
62 2 -3 29 -7 59 -9 30 -3 85 -9 122 -13 37 -4 78 -8 90 -9 13 -1 27 -3 31 -4
5 0 8 -13 7 -28 -4 -52 0 -72 16 -88 22 -22 36 -7 58 61 13 40 21 51 34 48 21
-5 96 -12 142 -13 31 -1 37 -5 45 -33 13 -43 30 -45 52 -8 17 30 21 32 66 27
26 -2 50 -7 53 -10 3 -3 7 -27 8 -53 2 -40 -2 -57 -26 -91 -16 -24 -26 -43
-23 -43 4 0 -1 -7 -10 -16 -18 -18 -17 -18 -34 14 -7 12 -16 20 -22 17 -13 -9
-11 -42 5 -73 13 -25 12 -32 -9 -76 -30 -62 -39 -71 -55 -51 -18 21 -40 19
-40 -5 0 -11 3 -20 8 -20 13 0 33 -41 25 -53 -4 -7 -8 -14 -9 -17 0 -3 -7 -18
-14 -35 -7 -16 -14 -32 -14 -35 -1 -3 -6 -13 -12 -23 -9 -16 -12 -15 -34 13
-27 36 -51 40 -45 8 8 -38 27 -78 37 -78 10 0 7 -41 -7 -90 -3 -14 -7 -31 -7
-38 -1 -13 -14 -12 -50 3 -28 11 -22 -20 7 -39 22 -15 24 -22 22 -82 l-2 -66
-47 5 c-26 3 -52 8 -57 11 -5 3 -16 3 -25 0 -26 -10 5 -39 64 -59 3 -1 12 -4
20 -8 8 -3 28 -8 44 -12 15 -3 35 -12 42 -20 29 -29 110 17 189 107 51 58 125
163 125 177 0 6 3 11 8 11 4 0 12 10 18 23 15 33 58 111 64 117 3 3 14 23 26
45 11 22 34 65 51 95 17 30 48 89 69 130 21 41 46 87 57 103 10 15 15 27 11
27 -4 0 0 8 9 18 8 9 20 30 26 45 9 22 14 26 28 18 10 -5 38 -8 62 -7 40 2 45
0 66 -34 31 -50 95 -177 90 -181 -1 -2 -5 -20 -8 -39 -7 -44 -18 -120 -21
-140 -1 -8 -18 -23 -37 -32 -46 -24 -116 -86 -124 -112 -11 -33 -12 -36 -15
-38 -1 -2 -3 -14 -5 -28 -1 -14 -5 -38 -9 -55 -3 -16 -8 -40 -10 -53 -3 -13
-8 -32 -11 -42 -3 -10 -8 -27 -10 -37 -2 -10 -11 -45 -20 -78 -9 -33 -18 -69
-20 -80 -2 -11 -4 -20 -5 -20 -1 0 -3 -8 -6 -17 -2 -10 -6 -24 -7 -30 -2 -7
-7 -34 -11 -60 -7 -41 -12 -48 -37 -53 -27 -6 -98 -67 -100 -86 -2 -13 -5 -22
-13 -41 -4 -9 -9 -25 -11 -35 -2 -10 -4 -18 -5 -18 -1 0 -3 -7 -5 -15 -16 -61
-29 -106 -37 -130 -21 -58 -29 -100 -23 -110 5 -9 4 -11 -3 -6 -8 4 -16 -3
-22 -19 -5 -14 -22 -52 -36 -83 -15 -31 -28 -64 -29 -72 -2 -8 -4 -16 -5 -17
-3 -4 -7 -20 -9 -33 0 -5 -11 -10 -23 -10 -13 0 -41 -9 -63 -19 -30 -13 -56
-17 -97 -13 -45 3 -64 0 -91 -16 -22 -13 -39 -17 -48 -11 -8 5 -29 9 -47 9
-27 0 -155 52 -172 70 -3 3 -23 14 -45 25 -22 11 -42 22 -45 26 -3 3 -12 9
-20 12 -8 4 -33 19 -55 32 -22 14 -48 28 -57 32 -10 3 -18 9 -18 14 0 5 -7 9
-15 9 -8 0 -15 5 -15 10 0 6 -7 10 -15 10 -8 0 -15 4 -15 8 0 5 -10 14 -22 19
-13 6 -32 18 -43 27 -11 9 -47 36 -80 60 -73 55 -99 75 -129 101 -13 11 -34
29 -48 40 -33 26 -134 113 -169 145 -315 292 -538 522 -602 621 -11 16 -23 29
-28 29 -5 0 -9 5 -9 11 0 10 -43 68 -94 126 -16 18 -44 38 -63 45 -18 7 -33
16 -33 20 0 4 -5 8 -11 8 -9 0 -37 23 -110 92 -22 21 -62 43 -72 40 -4 -1 -6
1 -5 5 7 19 -56 123 -104 173 -61 64 -123 112 -132 103 -3 -4 -6 -2 -6 4 0 9
-12 16 -50 27 -3 1 -10 4 -16 8 -6 4 -21 6 -33 3 -33 -6 -26 24 15 60 24 22
58 37 107 50 113 29 334 101 479 157 234 90 228 88 248 69 10 -9 25 -22 34
-28z m-2247 -1940 c-5 -7 -10 -46 -22 -148 -9 -79 -17 -142 -20 -165 -2 -14
-7 -51 -10 -83 -4 -32 -8 -68 -11 -80 -2 -12 -7 -42 -10 -67 -5 -43 -10 -72
-19 -130 -2 -14 -7 -47 -11 -75 -7 -60 -10 -79 -19 -125 -3 -19 -8 -46 -10
-60 -9 -59 -16 -106 -20 -120 -2 -8 -7 -28 -10 -45 -14 -80 -54 -266 -66 -301
-5 -17 -11 -40 -14 -50 -2 -10 -8 -33 -14 -51 -7 -26 -6 -35 8 -47 10 -9 21
-16 25 -16 4 0 19 -12 34 -26 27 -26 27 -26 -18 2 -25 16 -47 32 -48 37 -2 4
-8 5 -13 1 -5 -3 -9 -1 -9 5 0 5 -9 13 -20 16 -11 3 -26 12 -32 18 -7 7 -38
28 -68 46 -30 19 -66 44 -79 55 -14 12 -21 14 -16 6 7 -12 6 -13 -6 -4 -8 6
-34 14 -57 17 -24 3 -54 15 -66 26 -12 12 -26 21 -30 21 -4 0 -20 8 -34 19
-40 28 -115 71 -134 78 -10 3 -18 10 -18 15 0 5 -4 7 -9 3 -18 -10 -22 15 -8
43 33 66 90 170 113 207 14 22 27 48 31 58 3 9 9 17 13 17 4 0 12 11 18 24 13
30 122 180 134 184 4 2 8 10 8 17 0 7 3 15 8 17 8 3 57 62 86 102 11 15 27 36
35 46 9 10 23 28 31 40 8 12 25 34 38 48 26 32 24 29 88 112 27 36 51 67 54
70 3 3 25 32 49 65 25 33 48 62 53 63 4 2 8 9 8 16 0 6 8 19 18 28 9 8 28 30
41 47 20 27 40 44 28 24z m-121 -1645 l19 -23 -25 20 c-14 11 -27 21 -29 22
-2 2 0 3 6 3 5 0 18 -10 29 -22z m85 -75 c13 -16 12 -17 -3 -4 -10 7 -18 15
-18 17 0 8 8 3 21 -13z"/>
</g>
</svg>
