<?xml version="1.0" encoding="utf-8"?>
<!-- Generator: Adobe Illustrator 27.0.0, SVG Export Plug-In . SVG Version: 6.00 Build 0)  -->
<svg version="1.0" id="Layer_1" xmlns="http://www.w3.org/2000/svg" xmlns:xlink="http://www.w3.org/1999/xlink" x="0px" y="0px"
	 viewBox="0 0 1080 1080" style="enable-background:new 0 0 1080 1080;" xml:space="preserve">
<style type="text/css">
	.st0{fill:#080012;}
</style>
<g>
	<path class="st0" d="M384.6,303.94c58.44,0,111.52,23.85,159.21,71.54L654.65,509.5c44.34,49.71,90.35,76.58,138.05,80.61
		c27.54,2.02,54.25-38.29,80.11-120.92c25.86-82.63,59.62-123.94,101.27-123.94c25.53,0,47.02,8.23,64.49,24.69
		c17.47,16.46,26.2,37.45,26.2,62.98c0.67,88.67-26.2,167.27-80.61,235.79c-55.09,70.54-119.91,105.8-194.48,105.8
		s-142.75-25.19-204.56-75.57c-34.93-28.89-76.25-75.57-123.94-140.07c-36.95-50.38-62.48-75.57-76.58-75.57
		c-58.44,0-124.61,63.48-198.51,190.45c-19.48,34.26-45.34,51.39-77.59,51.39c-24.18,0-45.85-8.57-64.99-25.7
		s-28.72-37.79-28.72-61.97c0-12.76,3.36-26.87,10.08-42.32c36.28-78.6,83.64-144.43,142.08-197.5
		C236.14,335.18,308.69,303.94,384.6,303.94z"/>
</g>
</svg>
