<?xml version="1.0" encoding="utf-8"?>
<!-- Generator: Adobe Illustrator 27.0.0, SVG Export Plug-In . SVG Version: 6.00 Build 0)  -->
<svg version="1.0" id="Layer_1" xmlns="http://www.w3.org/2000/svg" xmlns:xlink="http://www.w3.org/1999/xlink" x="0px" y="0px"
	 viewBox="0 0 1080 1080" style="enable-background:new 0 0 1080 1080;" xml:space="preserve">
<style type="text/css">
	.st0{fill:#A861FF;}
</style>
<path class="st0" d="M736.44,395.09l-0.31-106.45h-0.01c0-29.72-24.09-53.81-53.81-53.81c-29.72,0-53.81,24.09-53.81,53.81
	c0,0.01,0,0.03,0,0.04l0.13,162.08c-5.16,3.4-11.36,5.19-18.73,5.19c-7.02,0-13.8-1.41-20.35-4.24
	c-6.57-2.82-12.55-6.27-17.99-10.35c-5.43-4.07-12.55-9.95-21.37-17.64c-10.86-9.5-20.53-17.24-29.01-23.24
	c-8.48-5.99-18.43-11.13-29.85-15.43c-11.42-4.29-24.03-6.44-37.83-6.44c-0.79,0-1.53,0.1-2.32,0.12V199.8H343.57v477.59h0v26.83
	c0,60.84,17.28,105.38,51.84,133.63c34.57,28.24,82.71,42.36,144.43,42.36c61.94,0,110.19-14.12,144.76-42.36
	c34.56-28.24,51.84-72.78,51.84-133.63L736.44,395.09L736.44,395.09z M628.82,702.9c0,22.46-3.92,40.07-11.77,52.83
	c-7.85,12.76-18.27,21.59-31.24,26.49c-12.98,4.91-28.31,7.36-45.97,7.36s-32.98-2.45-45.95-7.36
	c-12.98-4.91-23.34-13.74-31.08-26.49c-7.75-12.76-11.61-30.37-11.61-52.83V480.95c5-3.04,10.95-4.63,17.92-4.63
	c7.01,0,13.8,1.41,20.35,4.24c6.57,2.83,12.55,6.27,17.99,10.35c5.43,4.07,12.55,9.95,21.37,17.64
	c11.09,9.5,20.75,17.25,29.01,23.24c8.25,5.99,18.09,11.14,29.51,15.44c11.42,4.29,24.03,6.44,37.83,6.44
	c1.21,0,2.35-0.14,3.54-0.18l0.1,123.9h0.01V702.9z"/>
</svg>
